<?xml version="1.0" encoding="utf-8"?>
<!-- Generator: Adobe Illustrator 16.0.0, SVG Export Plug-In . SVG Version: 6.00 Build 0)  -->
<!DOCTYPE svg PUBLIC "-//W3C//DTD SVG 1.1//EN" "http://www.w3.org/Graphics/SVG/1.1/DTD/svg11.dtd">
<svg version="1.1" id="Calque_1" xmlns="http://www.w3.org/2000/svg" xmlns:xlink="http://www.w3.org/1999/xlink" x="0px" y="0px"
	 width="260px" height="260px" viewBox="0 0 260 260" enable-background="new 0 0 260 260" xml:space="preserve">
<g>
	<path fill="#3F3552" d="M0,0v260h260V0H0z"/>
	<path opacity="1" fill="#FFFFFF" d="M222,192.1c0,1.601-12.2,5.801-18.5,6.4c-16.6,1.6-43.2-3.2-57.6-10.4
		c-17.3-8.699-28.4-21.3-45.601-51.699c-5.5-9.9-10.9-17.9-14.4-21.7l-5.5-6l-4.1,2.7l-4.1,2.7l-0.7,17.3
		c-0.9,21.8,0.4,28.199,6.1,30.8c1.4,0.7,2.3,1.8,2.2,2.7c-0.3,1.399-3,1.6-19.1,1.899L42,167v-2.6c0-1.601,1-3.4,2.5-4.601
		c4.8-3.8,5.6-6.8,6.7-27.1c1-19.9,0.5-49.3-1.1-56.1c-0.6-2.2-2.5-5.4-4.5-7.5c-2-2-3.6-4.7-3.6-5.9C42,61,42.1,61,60.4,61
		c15.9,0,18.5,0.2,19.7,1.7c1.2,1.4,1.2,1.7,0,2.1c-3.1,1-6.1,5.2-7.7,10.8c-1.4,4.8-1.6,8.3-1.1,18.7c0.3,7.1,0.8,13.2,1.2,13.5
		c1,1,9.3-7.9,17.3-18.3c8.8-11.6,12.7-19.4,11.9-23.5l-0.6-2.8l12.7-0.7c6.9-0.4,13.6-1.1,14.7-1.5c2.8-1.2,3.3-1.2,4.1,0.1
		c0.801,1.4-22.3,24.8-32.3,32.7c-7,5.6-7.2,5.7-5.4,7.7c3.3,3.7,8.2,11.5,17.8,28.3c5.2,9.2,11.4,19.101,13.8,22.2
		c12.4,16,33.2,29.7,56.1,36.6c7.9,2.5,10.5,2.801,24.101,2.801C215.1,191.5,222,191.8,222,192.1z"/>
</g>
</svg>
