<svg version="1.1" id="Calque_1" xmlns="http://www.w3.org/2000/svg" x="0" y="0" viewBox="0 0 220 220" style="enable-background:new 0 0 220 220" xml:space="preserve"><style>.st2{enable-background:new}.st3{fill:#fff}</style><g id="Calque_1_1_"><g class="st2"><path class="st3" d="M51.3 71.4H21.7v30H8.3v-71h13.4v29.1h29.6V30.4h13.4v70.9H51.3V71.4zm50.7 31.2c-3.9 0-7.4-.7-10.5-2-3.1-1.3-5.7-3.2-7.8-5.6-2.1-2.4-3.8-5.3-4.9-8.7C77.6 82.9 77 79 77 74.7c0-4.2.6-8 1.7-11.4 1.1-3.4 2.7-6.3 4.8-8.7 2.1-2.4 4.7-4.3 7.7-5.6 3-1.3 6.5-2 10.4-2 4.1 0 7.7.7 10.8 2.1 3 1.4 5.6 3.4 7.5 5.8 2 2.4 3.4 5.3 4.4 8.5 1 3.2 1.5 6.7 1.5 10.3V78H90.5v1.3c0 3.8 1.1 6.9 3.3 9.2 2.2 2.3 5.4 3.5 9.7 3.5 3.3 0 5.9-.7 8-2 2.1-1.3 3.9-3.1 5.5-5.1l7 7.8c-2.2 3.1-5.1 5.5-8.9 7.2-3.8 1.8-8.1 2.7-13.1 2.7zm-.2-45.7c-3.5 0-6.2 1.2-8.2 3.5-2 2.3-3 5.3-3 8.9v.8h21.7v-.9c0-3.7-.9-6.6-2.7-8.9-1.8-2.3-4.4-3.4-7.8-3.4zm35.5 44.5v-53h13v8.8h.5c1-2.8 2.6-5.1 4.9-7.1 2.2-2 5.4-2.9 9.3-2.9 3.7 0 6.8.9 9.5 2.6 2.6 1.8 4.6 4.4 5.9 8h.2c.9-3 2.8-5.5 5.6-7.6 2.8-2.1 6.4-3.1 10.6-3.1 5.2 0 9.2 1.8 12 5.4 2.8 3.6 4.2 8.7 4.2 15.3v33.5h-13V69.2c0-7.6-2.8-11.4-8.5-11.4-1.3 0-2.5.2-3.7.6-1.2.4-2.2.9-3.2 1.6-.9.7-1.6 1.6-2.2 2.6-.5 1.1-.8 2.3-.8 3.7v35.1h-13V69.2c0-7.6-2.8-11.4-8.5-11.4-1.2 0-2.4.2-3.6.6-1.2.4-2.2.9-3.2 1.6s-1.7 1.6-2.2 2.6c-.6 1.1-.9 2.3-.9 3.7v35.1h-12.9z"/></g><path d="M64.8 183.4c-6.1 0-11.3-1.1-15.5-3.3-4.2-2.2-7.9-5-10.9-8.6l9-8.8c2.4 2.8 5.2 5 8.2 6.5 3 1.5 6.4 2.2 10 2.2 4.1 0 7.2-.9 9.3-2.7 2.1-1.8 3.2-4.2 3.2-7.2 0-2.4-.7-4.3-2-5.7-1.4-1.5-3.9-2.6-7.6-3.2l-6.7-1c-14.2-2.2-21.2-9.1-21.2-20.7 0-3.2.6-6.1 1.8-8.6 1.2-2.6 2.9-4.8 5.1-6.6 2.2-1.8 4.9-3.2 8.1-4.2 3.2-1 6.7-1.5 10.7-1.5 5.4 0 10 .9 14 2.6 4 1.8 7.4 4.4 10.3 7.8l-9.1 8.7c-1.8-2.1-3.9-3.9-6.4-5.2-2.5-1.3-5.7-2-9.5-2-3.9 0-6.8.7-8.7 2.2-1.9 1.4-2.9 3.5-2.9 6.1 0 2.7.8 4.7 2.3 5.9 1.6 1.3 4.1 2.2 7.5 2.8l6.6 1.2c7.2 1.3 12.5 3.6 15.9 6.9 3.4 3.3 5.1 7.9 5.1 13.8 0 3.4-.6 6.5-1.8 9.2-1.2 2.7-2.9 5.1-5.2 7.1-2.3 2-5 3.5-8.3 4.6-3.2 1.1-7 1.7-11.3 1.7zm71.8-54.3h12.2l-21.3 62.5c-.7 1.9-1.4 3.5-2.3 4.9-.8 1.4-1.8 2.5-3 3.4-1.2.9-2.5 1.5-4.2 1.9s-3.5.6-5.7.6h-7.8V192h9.6l2.4-7.4-19-55.5h12.9l9.2 28 3.5 13.4h.6l3.7-13.4 9.2-28z" style="fill:#0270d7" class="st2"/><g class="st2"><path class="st3" d="M142.2 182.7c-1.4 0-2.4-.3-3.1-1-.7-.7-1-1.6-1-2.7v-.9c0-1.1.3-2 1-2.7.7-.7 1.7-1.1 3.1-1.1 1.4 0 2.5.4 3.1 1.1.6.7 1 1.6 1 2.7v.9c0 1.1-.3 2-1 2.7-.6.7-1.7 1-3.1 1zm12-21.9h-3.9v-5.1h3.9v-3.8c0-2.3.6-4.1 1.9-5.4 1.2-1.3 3.1-1.9 5.5-1.9h4.6v5.2h-5.4v5.8h5.4v5.1h-5.4v21.4h-6.5v-21.3zm16.4 21.3v-26.5h6.5v5.5h.3c.2-.7.4-1.4.8-2.1.4-.7.8-1.2 1.4-1.8s1.3-.9 2.1-1.2c.8-.3 1.7-.5 2.8-.5h1.4v6.1h-2c-2.2 0-3.9.3-5 1-1.1.6-1.7 1.7-1.7 3.2v16.3h-6.6z"/></g></g><path d="M1002 178h50v6h-50z" style="fill:none"/></svg>