<?xml version="1.0" encoding="utf-8"?>
<!-- Generator: Adobe Illustrator 25.0.1, SVG Export Plug-In . SVG Version: 6.00 Build 0)  -->
<svg version="1.1" id="Calque_1" xmlns="http://www.w3.org/2000/svg" xmlns:xlink="http://www.w3.org/1999/xlink" x="0px" y="0px"
	 viewBox="0 0 370 110" style="enable-background:new 0 0 370 110;" xml:space="preserve">
<style type="text/css">
	.st0{fill:none;}
	.st1{enable-background:new    ;}
	.st2{fill:#FFFFFF;}
	.st3{fill:#0270D7;}
</style>
<g id="Calque_1_1_">
	<path class="st0" d="M0,27"/>
	<g class="st1">
		<path class="st2" d="M50.5,55.4H21.4v29.5H8.2V15.1h13.2v28.6h29.1V15.1h13.2v69.8H50.5V55.4z"/>
		<path class="st2" d="M100.4,86.1c-3.9,0-7.3-0.7-10.4-2c-3-1.3-5.6-3.1-7.7-5.5c-2.1-2.4-3.7-5.2-4.9-8.6
			c-1.1-3.4-1.7-7.2-1.7-11.4c0-4.1,0.6-7.9,1.6-11.2c1.1-3.3,2.7-6.2,4.8-8.5c2.1-2.4,4.6-4.2,7.6-5.5s6.4-2,10.2-2
			c4.1,0,7.6,0.7,10.6,2.1c3,1.4,5.5,3.3,7.4,5.7c1.9,2.4,3.4,5.2,4.4,8.3c1,3.2,1.4,6.5,1.4,10.2V62H89.1v1.3
			c0,3.8,1.1,6.8,3.2,9.1c2.1,2.3,5.3,3.4,9.5,3.4c3.2,0,5.8-0.7,7.9-2c2-1.3,3.9-3,5.5-5.1l6.9,7.7c-2.1,3-5.1,5.4-8.8,7.1
			C109.5,85.3,105.3,86.1,100.4,86.1z M100.2,41.1c-3.4,0-6.1,1.1-8.1,3.4c-2,2.3-3,5.2-3,8.8v0.8h21.4v-0.9c0-3.6-0.9-6.5-2.6-8.8
			C106.1,42.3,103.5,41.1,100.2,41.1z"/>
		<path class="st2" d="M135.1,84.9V32.7h12.8v8.7h0.5c1-2.7,2.6-5.1,4.8-7c2.2-1.9,5.3-2.9,9.2-2.9c3.6,0,6.7,0.9,9.3,2.6
			c2.6,1.7,4.5,4.4,5.8,7.9h0.2c0.9-2.9,2.8-5.4,5.5-7.4c2.8-2,6.2-3.1,10.5-3.1c5.1,0,9.1,1.8,11.8,5.3c2.8,3.5,4.2,8.6,4.2,15.1
			v33h-12.8V53.2c0-7.5-2.8-11.2-8.4-11.2c-1.3,0-2.5,0.2-3.6,0.6c-1.2,0.4-2.2,0.9-3.1,1.6c-0.9,0.7-1.6,1.6-2.1,2.6
			c-0.5,1-0.8,2.2-0.8,3.7v34.5H166V53.2c0-7.5-2.8-11.2-8.4-11.2c-1.2,0-2.4,0.2-3.5,0.6c-1.2,0.4-2.2,0.9-3.1,1.6
			s-1.6,1.6-2.2,2.6c-0.6,1-0.8,2.2-0.8,3.7v34.5H135.1z"/>
	</g>
	<g class="st1">
		<path class="st3" d="M239.6,86.1c-6,0-11.1-1.1-15.2-3.2c-4.2-2.1-7.8-4.9-10.8-8.4l8.9-8.6c2.4,2.8,5.1,4.9,8.1,6.4
			c3,1.5,6.2,2.2,9.8,2.2c4.1,0,7.1-0.9,9.2-2.6c2.1-1.8,3.1-4.1,3.1-7.1c0-2.3-0.7-4.2-2-5.7c-1.3-1.5-3.8-2.5-7.5-3.2l-6.6-1
			c-13.9-2.2-20.9-9-20.9-20.3c0-3.1,0.6-6,1.8-8.5c1.2-2.5,2.9-4.7,5-6.5c2.2-1.8,4.9-3.2,8-4.2c3.1-1,6.6-1.5,10.5-1.5
			c5.3,0,9.9,0.9,13.8,2.6c3.9,1.7,7.3,4.3,10.1,7.7l-9,8.5c-1.7-2.1-3.8-3.8-6.3-5.2c-2.5-1.3-5.6-2-9.3-2c-3.8,0-6.7,0.7-8.6,2.1
			c-1.9,1.4-2.8,3.4-2.8,6c0,2.6,0.8,4.6,2.3,5.8c1.5,1.3,4,2.2,7.4,2.8l6.5,1.2c7.1,1.3,12.3,3.5,15.6,6.8
			c3.4,3.2,5.1,7.8,5.1,13.6c0,3.3-0.6,6.4-1.8,9.1c-1.2,2.7-2.9,5-5.1,7c-2.2,2-5,3.5-8.2,4.6C247.5,85.6,243.8,86.1,239.6,86.1z"
			/>
		<path class="st3" d="M310.2,32.7h12l-21,61.5c-0.7,1.9-1.4,3.5-2.2,4.9c-0.8,1.4-1.8,2.5-2.9,3.3c-1.1,0.9-2.5,1.5-4.1,1.9
			c-1.6,0.4-3.5,0.6-5.6,0.6h-7.7V94.6h9.4l2.4-7.3l-18.7-54.6h12.7l9.1,27.5l3.4,13.2h0.6l3.6-13.2L310.2,32.7z"/>
	</g>
	<g class="st1">
		<path class="st2" d="M318.1,85.5c-1.4,0-2.4-0.3-3-1c-0.7-0.7-1-1.6-1-2.6v-0.9c0-1.1,0.3-2,1-2.7c0.7-0.7,1.7-1,3-1
			c1.4,0,2.4,0.4,3,1c0.6,0.7,1,1.6,1,2.7v0.9c0,1.1-0.3,1.9-1,2.6C320.6,85.1,319.5,85.5,318.1,85.5z"/>
		<path class="st2" d="M329.9,63.9H326v-5h3.8v-3.8c0-2.3,0.6-4.1,1.8-5.3c1.2-1.2,3-1.8,5.4-1.8h4.5v5.2h-5.3v5.8h5.3v5h-5.3v21
			h-6.4V63.9z"/>
		<path class="st2" d="M346.1,84.9V58.8h6.4v5.4h0.2c0.2-0.7,0.4-1.4,0.8-2c0.3-0.7,0.8-1.2,1.4-1.7c0.6-0.5,1.2-0.9,2-1.2
			c0.8-0.3,1.7-0.4,2.7-0.4h1.4v6h-2c-2.2,0-3.8,0.3-4.9,1c-1.1,0.6-1.7,1.7-1.7,3.1v16H346.1z"/>
	</g>
	<path d="M0,27"/>
</g>
</svg>
